<?xml version="1.0" encoding="utf-8"?>
<!-- Generator: Adobe Illustrator 28.1.0, SVG Export Plug-In . SVG Version: 6.00 Build 0)  -->
<svg version="1.1" id="Camada_1" xmlns="http://www.w3.org/2000/svg" xmlns:xlink="http://www.w3.org/1999/xlink" x="0px" y="0px"
	 viewBox="0 0 595.28 841.89" style="enable-background:new 0 0 595.28 841.89;" xml:space="preserve">
<style type="text/css">
	.st0{fill:#290D0C;}
</style>
<g>
	<path class="st0" d="M329.27,399.47c-0.15-0.91-0.4-1.79-0.76-2.63c-0.41-0.95-0.92-1.84-1.58-2.63c-0.87-1.05-1.88-1.95-3.06-2.65
		c-1.3-0.76-2.69-1.25-4.19-1.45c-0.1-0.01-0.2-0.01-0.25-0.12c-14.5,0-29.01,0-43.51,0c-0.04,0.1-0.13,0.11-0.22,0.12
		c-2.11,0.28-4,1.1-5.65,2.46c-1.35,1.11-2.4,2.46-3.12,4.05c-0.47,1.03-0.75,2.12-0.91,3.24c-0.01,0.08-0.01,0.16-0.01,0.24
		c0,0.1-0.02,0.18-0.12,0.22c0,13.74,0,27.49,0,41.23c0.1,0.04,0.11,0.13,0.12,0.22c0.1,1.26,0.44,2.45,0.97,3.59
		c0.44,0.97,1.02,1.84,1.71,2.65c0.8,0.94,1.73,1.71,2.79,2.33c1.22,0.72,2.54,1.2,3.95,1.42c0.1,0.02,0.2,0.01,0.25,0.12
		c14.66,0,29.33,0,43.99,0c0.04-0.08,0.11-0.11,0.19-0.12c1.16-0.16,2.25-0.53,3.3-1.03c0.69-0.33,1.33-0.75,1.93-1.22
		c1.24-0.97,2.24-2.16,2.98-3.55c0.61-1.14,1.02-2.34,1.21-3.61c0.01-0.09,0.04-0.16,0.12-0.19c0-14.15,0-28.3,0-42.44
		C329.28,399.68,329.28,399.57,329.27,399.47z M304.79,433.62c-0.08,0.01-0.16,0.01-0.24,0.01c-0.87,0-1.73,0-2.6,0
		c-0.86,0-1.71,0-2.57,0c-0.46,0-0.52-0.04-0.67-0.49c-0.67-1.94-1.34-3.88-2.01-5.82c-0.11-0.31-0.04-0.28-0.4-0.28
		c-3.08,0-6.16,0-9.24,0c-0.31,0-0.31,0-0.4,0.31c-0.62,1.92-1.24,3.85-1.87,5.77c-0.14,0.44-0.23,0.51-0.69,0.51
		c-1.51,0-3.02,0-4.53,0c-0.04,0-0.08,0-0.12,0c-0.48,0-0.57-0.13-0.41-0.59c0.68-1.96,1.36-3.92,2.04-5.87
		c2.12-6.12,4.25-12.24,6.38-18.36c0.3-0.87,0.49-1.76,0.48-2.69c0-0.29,0.07-0.36,0.35-0.36c2.22,0,4.43,0,6.65,0
		c0.31,0,0.33,0.02,0.44,0.34c1.85,5.21,3.7,10.43,5.55,15.64c1.32,3.74,2.65,7.47,3.97,11.21c0.04,0.12,0.09,0.25,0.11,0.38
		C305.04,433.5,304.97,433.6,304.79,433.62z M313.85,413.17c0,6.67,0,13.33,0,20c0,0.53-0.06,0.59-0.58,0.59c-1.57,0-3.14,0-4.71,0
		c-0.09,0-0.18,0-0.27-0.01c-0.21-0.02-0.32-0.13-0.35-0.35c-0.01-0.1-0.01-0.2-0.01-0.3c0-3.32,0-6.65,0-9.97c0-3.32,0-6.65,0-9.97
		c0-0.53,0.04-0.56,0.57-0.56c1.59,0,3.18,0,4.77,0c0.08,0,0.16,0,0.24,0c0.21,0.02,0.31,0.11,0.33,0.32
		C313.86,413,313.85,413.09,313.85,413.17z M313.91,408.53c-0.57,1.28-1.79,1.9-2.99,1.84c-0.42,0.02-0.85-0.05-1.27-0.22
		c-1.29-0.52-1.89-1.53-2-2.87c-0.04-0.44,0-0.88,0.14-1.31c0.38-1.19,1.48-2.08,2.73-2.2c0.42-0.04,0.84-0.03,1.26,0.06
		c1.01,0.2,1.73,0.78,2.14,1.72C314.36,406.53,314.35,407.54,313.91,408.53z"/>
	<path class="st0" d="M288.35,421.65c2.21,0,4.43,0,6.68,0c-1.16-3.67-2.37-7.29-3.4-10.97
		C290.68,414.39,289.42,417.99,288.35,421.65z"/>
</g>
</svg>
