<?xml version="1.0" encoding="utf-8"?>
<!-- Generator: Adobe Illustrator 28.1.0, SVG Export Plug-In . SVG Version: 6.00 Build 0)  -->
<svg version="1.1" id="Camada_1" xmlns="http://www.w3.org/2000/svg" xmlns:xlink="http://www.w3.org/1999/xlink" x="0px" y="0px"
	 viewBox="0 0 595.28 841.89" style="enable-background:new 0 0 595.28 841.89;" xml:space="preserve">
<style type="text/css">
	.st0{fill:#131F33;}
</style>
<g>
	<path class="st0" d="M322.87,389.99h-50.46c-3.6,0-6.53,2.92-6.53,6.53v48.86c0,3.6,2.92,6.53,6.53,6.53h50.46
		c3.6,0,6.53-2.92,6.53-6.53v-48.86C329.39,392.91,326.47,389.99,322.87,389.99z M300.16,416.05c-0.07,1.01-0.24,2-0.6,2.95
		c-0.81,2.13-2.3,3.64-4.31,4.65c-1.07,0.54-2.22,0.84-3.4,1.03c-1.66,0.27-3.33,0.29-5,0.22c-0.29-0.01-0.58,0-0.92,0
		c0,0.15,0,0.27,0,0.39c0,2.62,0,5.24,0,7.86c0,0.09,0,0.18,0,0.27c-0.02,0.2-0.12,0.31-0.32,0.33c-0.07,0.01-0.14,0-0.21,0
		c-1.55,0-3.1,0-4.65,0c-0.08,0-0.16,0-0.24,0c-0.17-0.02-0.25-0.09-0.28-0.27c-0.01-0.09-0.01-0.18-0.01-0.27
		c0-8.94,0-17.88,0-26.81c0-0.02,0-0.04,0-0.06c0-0.37,0.05-0.42,0.42-0.43c1.03-0.02,2.05-0.06,3.08-0.07
		c1.9-0.03,3.81-0.07,5.71-0.06c1.83,0.01,3.61,0.31,5.3,1.03c2.17,0.93,3.81,2.42,4.73,4.63
		C300.07,412.91,300.28,414.46,300.16,416.05z M314.7,433.33c-1.15,0.54-2.38,0.8-3.64,0.91c-1.38,0.12-2.76,0.07-4.13-0.13
		c-1.17-0.17-2.31-0.43-3.4-0.91c-0.34-0.15-0.49-0.35-0.48-0.74c0.02-1.39,0.01-2.78,0.01-4.17c0-0.07,0-0.14,0-0.21
		c0.01-0.31,0.13-0.38,0.4-0.22c1.57,0.91,3.28,1.38,5.06,1.58c0.95,0.11,1.91,0.13,2.85-0.1c0.2-0.05,0.41-0.12,0.6-0.21
		c0.79-0.37,0.97-1.28,0.38-1.93c-0.23-0.26-0.51-0.46-0.82-0.6c-0.75-0.34-1.5-0.68-2.27-0.98c-1.22-0.47-2.38-1.04-3.45-1.78
		c-1.15-0.8-2.02-1.82-2.44-3.18c-0.73-2.42,0.05-5.41,2.71-7.05c1.08-0.67,2.26-1.05,3.52-1.2c1.93-0.22,3.84-0.11,5.74,0.24
		c0.52,0.1,1.03,0.28,1.53,0.45c0.37,0.12,0.44,0.25,0.44,0.65c0,0.69,0,1.37,0,2.06c0,0.69-0.01,1.37,0.01,2.06
		c0.01,0.37-0.16,0.48-0.55,0.4c-0.06-0.01-0.11-0.04-0.17-0.07c-1.07-0.56-2.22-0.85-3.4-1.01c-0.69-0.09-1.38-0.13-2.07-0.17
		c-0.55-0.03-1.08,0.07-1.61,0.22c-0.32,0.09-0.58,0.27-0.76,0.56c-0.28,0.47-0.23,0.98,0.13,1.4c0.25,0.3,0.56,0.53,0.91,0.69
		c0.77,0.35,1.53,0.71,2.32,1.02c1.24,0.48,2.45,1.04,3.57,1.76c1.35,0.87,2.3,2.04,2.6,3.66
		C318.82,429.31,317.5,432.02,314.7,433.33z"/>
	<path class="st0" d="M292.2,411.57c-0.81-0.38-1.68-0.58-2.57-0.6c-1.11-0.02-2.21,0-3.32,0c-0.11,0-0.21,0.03-0.33,0.04
		c0,2.97,0,5.92,0,8.89c0.99,0.1,1.95,0.08,2.9,0.05c0.73-0.03,1.44-0.15,2.14-0.33c0.91-0.23,1.72-0.63,2.38-1.3
		c0.38-0.39,0.66-0.83,0.82-1.36c0.24-0.78,0.3-1.58,0.18-2.39C294.19,413.19,293.48,412.16,292.2,411.57z"/>
</g>
</svg>
