<?xml version="1.0" encoding="utf-8"?>
<!-- Generator: Adobe Illustrator 28.1.0, SVG Export Plug-In . SVG Version: 6.00 Build 0)  -->
<svg version="1.1" id="Camada_1" xmlns="http://www.w3.org/2000/svg" xmlns:xlink="http://www.w3.org/1999/xlink" x="0px" y="0px"
	 viewBox="0 0 595.28 841.89" style="enable-background:new 0 0 595.28 841.89;" xml:space="preserve">
<style type="text/css">
	.st0{fill:#20234B;}
</style>
<g>
	<path class="st0" d="M250.63,432.15c0-0.38-0.03-0.76-0.08-1.13c-0.79-5.49-5.53-9.59-11.08-9.59c-13.66,0-27.32,0-40.98,0.01
		c-0.75,0-1.52,0.08-2.25,0.24c-5.39,1.18-8.98,5.67-8.98,11.19c0,12.92,0,25.84,0,38.76c0,0.51,0.03,1.03,0.07,1.54
		c0.5,5.73,5.36,10.17,11.12,10.17c6.85,0,13.69,0,20.54,0c6.78,0,13.56,0,20.33,0c3.38,0,6.24-1.24,8.49-3.76
		c1.83-2.04,2.81-4.45,2.81-7.22C250.63,458.95,250.63,445.55,250.63,432.15z M220.47,465.06c-0.81,0-1.62,0-2.42,0
		c-0.83,0-1.65-0.02-2.48,0.01c-0.42,0.02-0.61-0.15-0.74-0.53c-0.63-1.87-1.29-3.74-1.91-5.61c-0.12-0.34-0.27-0.49-0.65-0.49
		c-2.96,0.02-5.92,0.02-8.87,0c-0.38,0-0.54,0.13-0.65,0.48c-0.58,1.85-1.19,3.69-1.77,5.55c-0.13,0.43-0.34,0.61-0.8,0.6
		c-1.48-0.03-2.96-0.01-4.44-0.01c-0.66,0-0.73-0.09-0.51-0.72c1.38-3.97,2.77-7.94,4.15-11.92c1.45-4.15,2.9-8.3,4.32-12.46
		c0.23-0.67,0.29-1.41,0.36-2.12c0.04-0.35,0.11-0.53,0.51-0.52c2.13,0.01,4.26,0.02,6.4,0c0.39,0,0.5,0.22,0.6,0.51
		c1.35,3.8,2.71,7.6,4.06,11.41c1.79,5.03,3.58,10.07,5.37,15.1C221.23,465,221.19,465.06,220.47,465.06z M241.52,455.48
		c-0.03,0.35-0.22,0.5-0.58,0.5c-1.42,0.01-2.85,0.05-4.27,0.06c-2.56,0.01-5.13,0-7.69,0c-0.17,0-0.34,0-0.57,0
		c0.23,1.6,0.83,2.89,2.23,3.69c1.57,0.9,3.29,1.08,5.05,0.86c1.37-0.18,2.72-0.49,4.12-0.75c0.01,0.1,0.03,0.28,0.03,0.47
		c0,1.14-0.01,2.27,0.01,3.41c0.01,0.51-0.17,0.78-0.65,0.96c-2.51,0.92-5.1,1.06-7.73,0.84c-1.58-0.13-3.07-0.58-4.42-1.43
		c-2.43-1.53-3.81-3.78-4.31-6.57c-0.73-3.99-0.08-7.68,2.65-10.82c1.67-1.92,3.83-2.9,6.4-2.99c1.56-0.05,3.09,0.03,4.57,0.59
		c2.75,1.05,4.24,3.16,4.98,5.9C241.8,451.94,241.68,453.71,241.52,455.48z"/>
	<path class="st0" d="M204.51,453.19c2.21,0,4.39,0,6.64,0c-1.12-3.63-2.23-7.22-3.34-10.79C206.72,446,205.62,449.57,204.51,453.19
		z"/>
	<path class="st0" d="M232.92,448.28c-2.24-0.28-4.28,1.15-4.46,3.83c0.03,0.02,0.06,0.05,0.09,0.05c2.29,0,4.58,0.02,6.86,0
		c0.61-0.01,0.73-0.21,0.66-0.82C235.91,449.75,234.62,448.49,232.92,448.28z"/>
</g>
</svg>
