<svg width="61" height="61" viewBox="0 0 61 61" fill="none" xmlns="http://www.w3.org/2000/svg">
<path d="M0.895813 0.912598V60.197H60.1802V0.912598H0.895813ZM33.1582 47.1491C33.1582 52.9188 29.7705 55.5522 24.8345 55.5522C20.375 55.5522 17.7945 53.2496 16.4712 50.4574L21.0102 47.7182C21.8835 49.2664 22.6775 50.5765 24.5963 50.5765C26.4225 50.5765 27.587 49.8619 27.587 47.0697V28.1331H33.1582V47.1491ZM46.3384 55.5522C41.1642 55.5522 37.8162 53.0908 36.1886 49.8619L40.7275 47.2418C41.9185 49.187 43.48 50.6294 46.2193 50.6294C48.5218 50.6294 50.0039 49.4782 50.0039 47.8769C50.0039 45.9714 48.4954 45.2965 45.9414 44.1717L44.5519 43.5762C40.529 41.8691 37.8692 39.7121 37.8692 35.1731C37.8692 30.9915 41.0583 27.8155 46.0208 27.8155C49.5672 27.8155 52.108 29.0462 53.9342 32.2751L49.5937 35.0541C48.6409 33.347 47.6087 32.6721 46.0075 32.6721C44.3799 32.6721 43.3477 33.7043 43.3477 35.0541C43.3477 36.7214 44.3799 37.3963 46.7751 38.4417L48.1645 39.0372C52.902 41.0619 55.5618 43.1395 55.5618 47.7975C55.5618 52.7997 51.6184 55.5522 46.3384 55.5522Z" fill="black"/>
</svg>
