<svg width="42" height="61" viewBox="0 0 42 61" fill="none" xmlns="http://www.w3.org/2000/svg">
<path fill-rule="evenodd" clip-rule="evenodd" d="M18.8039 5.52616H11.909C8.10103 5.52616 5.01407 8.57287 5.01407 12.3312C5.01407 16.0895 8.10103 19.1362 11.909 19.1362H18.8039V5.52616ZM18.8039 0.912598H23.4785H30.3734C36.7632 0.912598 41.9426 6.02484 41.9426 12.3312C41.9426 16.0527 40.1392 19.3584 37.3471 21.443C40.1392 23.5276 41.9426 26.8333 41.9426 30.5548C41.9426 36.8611 36.7632 41.9734 30.3734 41.9734C27.7898 41.9734 25.404 41.1376 23.4785 39.725V41.9734V48.7784C23.4785 55.0847 18.2986 60.197 11.909 60.197C5.51934 60.197 0.339539 55.0847 0.339539 48.7784C0.339539 45.0566 2.14335 41.7512 4.93516 39.6666C2.14335 37.5819 0.339539 34.2763 0.339539 30.5548C0.339539 26.8333 2.14339 23.5276 4.93525 21.443C2.14339 19.3584 0.339539 16.0527 0.339539 12.3312C0.339539 6.02484 5.51934 0.912598 11.909 0.912598H18.8039ZM23.4785 5.52616V19.1362H30.3734C34.1815 19.1362 37.2681 16.0895 37.2681 12.3312C37.2681 8.57287 34.1815 5.52616 30.3734 5.52616H23.4785ZM11.909 37.3597H18.8039V30.5723V30.5548V30.5373V23.7498H11.909C8.10103 23.7498 5.01407 26.7965 5.01407 30.5548C5.01407 34.3041 8.08626 37.3452 11.8817 37.3598L11.909 37.3597ZM5.01407 48.7784C5.01407 45.029 8.08626 41.9879 11.8817 41.9733L11.909 41.9734H18.8039V48.7784C18.8039 52.5366 15.717 55.5834 11.909 55.5834C8.10103 55.5834 5.01407 52.5366 5.01407 48.7784ZM23.4785 30.5413C23.4859 26.7892 26.57 23.7498 30.3734 23.7498C34.1815 23.7498 37.2681 26.7965 37.2681 30.5548C37.2681 34.3131 34.1815 37.3598 30.3734 37.3598C26.57 37.3598 23.4859 34.3204 23.4785 30.5684V30.5413Z" fill="black"/>
</svg>
