<svg width="62" height="61" viewBox="0 0 62 61" fill="none" xmlns="http://www.w3.org/2000/svg">
<path d="M3.17262 3.44674H59.369V57.6628H3.17262V3.44674ZM0.617676 60.197H61.9117V0.912598H0.617676V60.197ZM41.9512 25.2428C39.9367 25.2428 39.2489 26.2541 39.2489 27.0947C39.2489 28.0085 39.7034 28.642 42.418 30.0309C46.4224 31.9559 47.6753 33.8078 47.6753 36.5125C47.6753 40.5695 44.5553 42.7504 40.3421 42.7504C38.1188 42.7504 36.2026 42.2996 35.1094 41.666C34.9251 41.5929 34.9006 41.4589 34.9006 41.264V37.5237C34.9006 37.2678 35.0234 37.1947 35.2076 37.3166C36.8168 38.3522 38.6593 38.8151 40.3421 38.8151C42.3566 38.8151 43.2041 37.9745 43.2041 36.8414C43.2041 35.9277 42.6145 35.1236 40.035 33.7956C36.4114 32.0777 34.9006 30.3355 34.9006 27.4115C34.9006 24.1463 37.4801 21.4294 41.9512 21.4294C44.1499 21.4294 45.6854 21.7584 46.5206 22.1361C46.7295 22.2579 46.7786 22.465 46.7786 22.6478V26.12C46.7786 26.3272 46.6558 26.449 46.3978 26.3759C45.2677 25.6693 43.6095 25.2428 41.9512 25.2428ZM19.9886 28.2521C20.5782 28.3009 21.0326 28.3009 22.0522 28.3009C25.037 28.3009 27.8499 27.2653 27.8499 23.2326C27.8499 20.0162 25.8354 18.3958 22.4329 18.3958C21.4134 18.3958 20.443 18.4445 19.9763 18.4689L19.9886 28.2521ZM15.4314 14.8017C15.4314 14.6189 15.7876 14.4971 15.9965 14.4971C17.6301 14.424 20.0623 14.3752 22.5803 14.3752C29.6556 14.3752 32.4193 18.2252 32.4193 23.1351C32.4193 29.5679 27.7148 32.3336 21.9416 32.3336C20.9712 32.3336 20.6396 32.2848 19.9517 32.2848V42.0072C19.9517 42.2143 19.878 42.3118 19.6446 42.3118H15.7385C15.5297 42.3118 15.4314 42.2387 15.4314 42.0072V14.8017Z" fill="black"/>
</svg>
