<svg width="81" height="61" viewBox="0 0 81 61" fill="none" xmlns="http://www.w3.org/2000/svg">
<path d="M38.3091 45.7324C38.2344 45.8682 38.2718 45.8065 38.3091 45.7324V45.7324ZM69.3235 34.9879C66.8193 34.9873 64.3486 35.5577 62.1021 36.6552C61.3676 35.1855 60.6081 33.9011 60.4836 32.9379C60.3342 31.814 60.1723 31.1471 60.3466 29.8133C60.5209 28.4795 61.3053 26.59 61.2929 26.4542C61.2804 26.3183 61.1185 25.6391 59.5124 25.6267C57.9063 25.6144 56.5243 25.9355 56.3624 26.3554C56.0788 27.1227 55.8581 27.9116 55.7026 28.7142C55.4162 30.1591 52.4903 35.3214 50.8344 38.0137C50.2866 36.9639 49.8259 36.0377 49.7263 35.2967C49.5769 34.1728 49.415 33.506 49.5893 32.1722C49.7636 30.8384 50.548 28.9488 50.5356 28.813C50.5231 28.6771 50.3613 27.9979 48.7551 27.9855C47.149 27.9732 45.767 28.2943 45.6052 28.7142C45.4433 29.1341 45.269 30.1221 44.9453 31.073C44.6216 32.024 40.7245 40.6195 39.7036 42.8548C39.1807 43.991 38.7324 44.9049 38.4087 45.5224C38.3589 45.6212 38.3216 45.683 38.2967 45.7324C38.334 45.6706 38.3589 45.6089 38.3589 45.6336C38.085 46.1646 37.9232 46.461 37.9232 46.461V46.4734C37.7115 46.8685 37.4749 47.2267 37.3629 47.2267C37.2882 47.2267 37.1263 46.1893 37.4002 44.7691C37.9854 41.7804 39.3674 37.1368 39.355 36.9763C39.3425 36.8898 39.6164 36.0871 38.4461 35.6548C37.3131 35.2473 36.9022 35.9265 36.8026 35.9265C36.703 35.9265 36.6283 36.1735 36.6283 36.1735C36.6283 36.1735 37.8858 30.9372 34.2129 30.9372C31.922 30.9372 28.7347 33.4319 27.1659 35.6919C26.1823 36.2229 24.0532 37.3715 21.8121 38.5941C20.9531 39.0634 20.0691 39.5451 19.2349 40.002C19.1726 39.9403 19.1228 39.8785 19.0606 39.8168C14.6033 35.0991 6.37346 31.7646 6.72207 25.4291C6.84658 23.1197 7.65586 17.0559 22.5467 9.69533C34.7483 3.66857 44.5095 5.32346 46.1779 9.00373C48.5933 14.2524 40.9611 24.0212 28.2864 25.4291C23.4556 25.9602 20.9157 24.1077 20.2807 23.4161C19.6208 22.6874 19.5212 22.6504 19.2722 22.7862C18.8614 23.0085 19.1228 23.6507 19.2722 24.0336C19.6457 25.0092 21.2021 26.7382 23.854 27.6027C26.1823 28.356 31.8473 28.7759 38.6951 26.1454C46.3895 23.2061 52.3783 15.0181 50.6227 8.16394C48.8548 1.19859 37.2135 -1.08614 26.2072 2.79173C19.6457 5.10116 12.5489 8.73204 7.4442 13.462C1.38078 19.0936 0.409639 23.9965 0.808057 26.0466C2.22742 33.3207 12.3373 38.0631 16.3837 41.5704C16.1845 41.6816 15.9977 41.7804 15.8234 41.8792C13.794 42.8795 6.08709 46.8809 4.15726 51.1046C1.97841 55.8963 4.51832 59.3296 6.1867 59.7989C11.391 61.2315 16.7199 58.6504 19.5835 54.4143C22.4471 50.1783 22.0985 44.6456 20.7787 42.1262C20.7663 42.0891 20.7414 42.0644 20.7289 42.0274C21.2519 41.7186 21.7872 41.4099 22.3226 41.1011C23.356 40.496 24.3645 39.9403 25.2485 39.4586C24.7505 40.7924 24.3894 42.3979 24.2027 44.7197C23.9785 47.4366 25.1115 50.9564 26.5807 52.3396C27.2281 52.9447 28.0125 52.9571 28.4981 52.9571C30.2163 52.9571 30.9882 51.5492 31.8473 49.8696C32.9056 47.8195 33.8394 45.436 33.8394 45.436C33.8394 45.436 32.669 51.8826 35.8688 51.8826C37.0392 51.8826 38.2095 50.3883 38.7324 49.6226V49.6349C38.7324 49.6349 38.7574 49.5855 38.8196 49.4867C38.9441 49.3015 39.0064 49.1903 39.0064 49.1903V49.1533C39.4795 48.3505 40.5129 46.5104 42.0692 43.4723C44.0862 39.5451 46.016 34.6421 46.016 34.6421C46.2024 35.7199 46.4602 36.7843 46.788 37.8284C47.1366 39.0017 47.8712 40.286 48.4563 41.5334C47.9832 42.1756 47.6968 42.5461 47.6968 42.5461C47.6976 42.5556 47.7021 42.5644 47.7093 42.5708C47.3358 43.0648 46.9125 43.5958 46.4767 44.1145C44.883 45.9917 42.9905 48.1406 42.7415 48.7581C42.4427 49.4867 42.5174 50.0301 43.0901 50.45C43.5135 50.7711 44.2605 50.8205 45.0449 50.7588C46.4767 50.66 47.4852 50.3142 47.9708 50.0919C48.8664 49.7736 49.7129 49.333 50.4858 48.7828C52.0421 47.6466 52.9883 46.0164 52.9012 43.8675C52.8514 42.6819 52.4654 41.4963 51.9923 40.3848C52.1292 40.1873 52.2787 39.9773 52.4156 39.7674C54.8684 36.1982 56.7733 32.2833 56.7733 32.2833C56.9597 33.3611 57.2175 34.4255 57.5452 35.4696C57.844 36.4699 58.4292 37.5691 58.9646 38.6435C56.6488 40.5083 55.217 42.6696 54.719 44.0898C53.7976 46.7204 54.5198 47.9059 55.8769 48.1776C56.4869 48.3011 57.3585 48.0171 58.0059 47.7454C58.9678 47.4278 59.8749 46.9654 60.6952 46.3746C62.2515 45.2384 63.7581 43.6452 63.6585 41.484C63.6211 40.5083 63.3472 39.5327 62.9861 38.5941C64.9409 37.779 67.4808 37.3344 70.7179 37.7049C77.6529 38.5077 79.01 42.8054 78.7485 44.5962C78.4871 46.3869 77.0304 47.3872 76.5448 47.6836C76.0592 47.98 75.9098 48.0912 75.9472 48.3135C76.0094 48.6346 76.2335 48.6222 76.6444 48.5481C77.2171 48.4493 80.28 47.0908 80.4169 43.7687C80.6161 39.5698 76.5448 34.9509 69.3359 34.9879H69.3235ZM15.8857 52.8583C13.5948 55.3406 10.3825 56.2792 9.00052 55.4888C7.53136 54.6366 8.11653 50.9811 10.9428 48.3382C12.661 46.7327 14.8772 45.2507 16.3464 44.3368C16.6825 44.1392 17.1681 43.8428 17.7657 43.4847C17.8653 43.4229 17.9151 43.3982 17.9151 43.3982C18.0272 43.3241 18.1517 43.2624 18.2762 43.1883C19.3096 46.9426 18.3135 50.2524 15.8981 52.8583H15.8857ZM32.6192 41.5704C31.8224 43.5094 30.1416 48.4493 29.1206 48.19C28.2491 47.9677 27.7137 44.201 28.9463 40.496C29.5688 38.6312 30.8886 36.4082 31.673 35.5437C32.9305 34.1481 34.3125 33.7035 34.6362 34.2593C35.072 34.9879 33.1172 40.3601 32.6192 41.5704ZM46.4393 48.1159C46.1032 48.2888 45.7919 48.3999 45.6425 48.3135C45.5305 48.2517 45.7795 48.0171 45.7795 48.0171C45.7795 48.0171 47.5101 46.177 48.1949 45.3372C48.5933 44.8432 49.054 44.2627 49.552 43.6205C49.552 43.6823 49.5644 43.744 49.5644 43.8181C49.552 46.0288 47.4105 47.5231 46.4393 48.1159ZM57.097 45.7077C56.848 45.5348 56.8854 44.9543 57.7195 43.1512C58.0433 42.4473 58.7903 41.2617 60.0852 40.1255C60.2318 40.5556 60.3116 41.0054 60.3217 41.4593C60.3093 44.238 58.3047 45.2754 57.097 45.7077Z" fill="black"/>
</svg>
